<?xml version="1.0" standalone="no"?>
<!DOCTYPE svg PUBLIC "-//W3C//DTD SVG 20010904//EN"
 "http://www.w3.org/TR/2001/REC-SVG-20010904/DTD/svg10.dtd">
<svg version="1.0" xmlns="http://www.w3.org/2000/svg"
 width="1072.000000pt" height="1072.000000pt" viewBox="0 0 1072.000000 1072.000000"
 preserveAspectRatio="xMidYMid meet">
<metadata>
Created by potrace 1.11, written by Peter Selinger 2001-2013
</metadata>
<g transform="translate(0.000000,1072.000000) scale(0.100000,-0.100000)"
fill="#000000" stroke="none">
<path d="M250 9670 l-21 -21 26 -47 c14 -26 693 -1201 1508 -2612 l1482 -2565
-479 -3 -480 -2 -33 -32 c-19 -18 -31 -38 -29 -44 2 -6 -9 -24 -25 -40 -16
-15 -32 -42 -37 -58 -4 -17 -5 -405 -2 -863 l5 -832 29 -30 c23 -24 27 -34 18
-43 -9 -9 -3 -22 30 -55 l42 -43 1072 0 1071 0 449 -777 c247 -427 457 -781
467 -787 12 -8 22 -8 35 0 9 6 218 359 465 785 l447 774 218 6 c219 7 301 16
447 49 242 56 473 165 685 321 110 81 488 459 569 569 250 339 371 713 371
1148 l0 128 -145 93 c-80 51 -149 100 -154 110 -5 9 -11 41 -15 71 -21 164
-84 398 -147 537 -16 35 -29 69 -29 74 0 5 24 -6 53 -24 30 -19 63 -38 75 -41
12 -4 22 -13 22 -21 0 -18 239 -175 267 -175 28 0 28 -3 -2 103 -35 119 -110
294 -173 400 -29 49 -52 91 -52 93 0 2 484 841 1075 1864 591 1023 1089 1885
1106 1915 l30 54 -20 20 -21 21 -5090 0 -5090 0 -20 -20z m840 -30 c0 -5 -4
-10 -10 -10 -5 0 -10 5 -10 10 0 6 5 10 10 10 6 0 10 -4 10 -10z m6950 0 c0
-5 -4 -10 -10 -10 -5 0 -10 5 -10 10 0 6 5 10 10 10 6 0 10 -4 10 -10z m-1110
-10 c0 -5 -4 -10 -10 -10 -5 0 -10 5 -10 10 0 6 5 10 10 10 6 0 10 -4 10 -10z
m-2380 -10 c0 -5 -4 -10 -10 -10 -5 0 -10 5 -10 10 0 6 5 10 10 10 6 0 10 -4
10 -10z m3010 0 c0 -5 -4 -10 -10 -10 -5 0 -10 5 -10 10 0 6 5 10 10 10 6 0
10 -4 10 -10z m-4520 -4 c0 -3 -4 -8 -10 -11 -5 -3 -10 -1 -10 4 0 6 5 11 10
11 6 0 10 -2 10 -4z m5180 -16 c0 -5 -4 -10 -10 -10 -5 0 -10 5 -10 10 0 6 5
10 10 10 6 0 10 -4 10 -10z m-1800 -10 c0 -5 -2 -10 -4 -10 -3 0 -8 5 -11 10
-3 6 -1 10 4 10 6 0 11 -4 11 -10z m1840 0 c0 -5 -4 -10 -10 -10 -5 0 -10 5
-10 10 0 6 5 10 10 10 6 0 10 -4 10 -10z m-5090 -10 c0 -5 -5 -10 -11 -10 -5
0 -7 5 -4 10 3 6 8 10 11 10 2 0 4 -4 4 -10z m2870 -9 c0 -6 -4 -13 -10 -16
-5 -3 -10 1 -10 9 0 9 5 16 10 16 6 0 10 -4 10 -9z m1880 5 c0 -3 -4 -8 -10
-11 -5 -3 -10 -1 -10 4 0 6 5 11 10 11 6 0 10 -2 10 -4z m-6420 -26 c0 -5 -7
-10 -15 -10 -8 0 -15 5 -15 10 0 6 7 10 15 10 8 0 15 -4 15 -10z m-374 -77
c-10 -10 -19 5 -10 18 6 11 8 11 12 0 2 -7 1 -15 -2 -18z m2991 1 c-9 -9 -28
6 -21 18 4 6 10 6 17 -1 6 -6 8 -13 4 -17z m3463 16 c0 -5 -5 -10 -11 -10 -5
0 -7 5 -4 10 3 6 8 10 11 10 2 0 4 -4 4 -10z m60 -10 c0 -5 -5 -10 -11 -10 -5
0 -7 5 -4 10 3 6 8 10 11 10 2 0 4 -4 4 -10z m-3640 -8 c0 -13 -12 -22 -22
-16 -10 6 -1 24 13 24 5 0 9 -4 9 -8z m2150 -2 c0 -5 -4 -10 -10 -10 -5 0 -10
5 -10 10 0 6 5 10 10 10 6 0 10 -4 10 -10z m210 -10 c0 -5 -7 -10 -15 -10 -8
0 -15 5 -15 10 0 6 7 10 15 10 8 0 15 -4 15 -10z m670 0 c0 -5 -4 -10 -10 -10
-5 0 -10 5 -10 10 0 6 5 10 10 10 6 0 10 -4 10 -10z m685 0 c3 -5 1 -10 -4
-10 -6 0 -11 5 -11 10 0 6 2 10 4 10 3 0 8 -4 11 -10z m-4125 -10 c0 -5 -4
-10 -10 -10 -5 0 -10 5 -10 10 0 6 5 10 10 10 6 0 10 -4 10 -10z m4250 0 c0
-5 -5 -10 -11 -10 -5 0 -7 5 -4 10 3 6 8 10 11 10 2 0 4 -4 4 -10z m-4176 -21
c-3 -5 -10 -7 -15 -3 -5 3 -7 10 -3 15 3 5 10 7 15 3 5 -3 7 -10 3 -15z m636
1 c0 -5 -7 -7 -15 -4 -8 4 -12 10 -9 15 6 11 24 2 24 -11z m1820 10 c0 -5 -4
-10 -10 -10 -5 0 -10 5 -10 10 0 6 5 10 10 10 6 0 10 -4 10 -10z m2910 -10 c0
-5 -2 -10 -4 -10 -3 0 -8 5 -11 10 -3 6 -1 10 4 10 6 0 11 -4 11 -10z m-1201
-30 c2146 0 2151 0 2171 -20 17 -17 19 -24 9 -43 -10 -19 -704 -1226 -729
-1267 -5 -8 -156 -269 -336 -580 -180 -311 -358 -617 -396 -682 -45 -77 -66
-122 -62 -135 4 -12 3 -14 -3 -6 -8 11 -53 -59 -143 -222 -12 -22 -27 -46 -33
-54 -9 -10 -7 -17 8 -28 19 -15 19 -15 1 -9 -27 9 -50 -12 -34 -32 11 -13 10
-14 -2 -10 -16 5 -67 -68 -56 -79 3 -3 -1 -11 -10 -17 -8 -7 -37 -49 -63 -94
-40 -70 -50 -81 -60 -68 -10 12 -6 26 23 76 20 34 36 64 36 66 0 3 9 19 21 36
12 16 19 32 15 35 -3 3 1 11 9 17 8 6 77 119 153 251 98 170 1582 2737 1629
2817 7 13 -1078 10 -1093 -3 -10 -8 -14 -8 -14 0 0 17 -250 15 -251 -1 0 -10
-2 -10 -6 -1 -6 16 -833 18 -833 3 0 -6 -7 -10 -15 -10 -8 0 -15 5 -15 10 0 7
-1166 10 -3506 10 l-3506 0 19 -33 c11 -17 117 -201 237 -407 119 -206 221
-382 226 -390 5 -8 211 -364 457 -790 350 -606 448 -784 451 -815 4 -44 -3
-40 -38 27 -12 22 -25 35 -33 32 -8 -3 -13 4 -12 18 0 13 -58 125 -130 250
-96 169 -135 228 -149 228 -14 0 -16 3 -8 13 8 9 -15 55 -84 172 -51 88 -97
167 -101 175 -4 8 -45 80 -91 160 -46 80 -96 165 -109 190 -14 25 -49 86 -78
135 -112 191 -565 976 -580 1004 -14 29 -14 32 5 51 20 20 26 20 2464 20 1624
0 2447 3 2451 10 4 7 12 7 25 0 12 -7 751 -10 2169 -10z m-2649 -54 c0 -3 -4
-8 -10 -11 -5 -3 -10 -1 -10 4 0 6 5 11 10 11 6 0 10 -2 10 -4z m1785 -5 c3
-5 1 -12 -5 -16 -5 -3 -10 1 -10 9 0 18 6 21 15 7z m3265 -1 c0 -5 -4 -10 -10
-10 -5 0 -10 5 -10 10 0 6 5 10 10 10 6 0 10 -4 10 -10z m-7950 -10 c0 -5 -5
-10 -11 -10 -5 0 -7 5 -4 10 3 6 8 10 11 10 2 0 4 -4 4 -10z m3100 -20 c0 -5
-4 -10 -9 -10 -6 0 -13 5 -16 10 -3 6 1 10 9 10 9 0 16 -4 16 -10z m55 -6 c-9
-9 -18 -14 -21 -11 -9 9 6 27 22 27 13 0 13 -2 -1 -16z m4297 -6 c-7 -7 -12
-8 -12 -2 0 14 12 26 19 19 2 -3 -1 -11 -7 -17z m-3407 -8 c-3 -5 -10 -10 -16
-10 -5 0 -9 5 -9 10 0 6 7 10 16 10 8 0 12 -4 9 -10z m3335 6 c0 -3 -4 -8 -10
-11 -5 -3 -10 -1 -10 4 0 6 5 11 10 11 6 0 10 -2 10 -4z m-8220 -12 c0 -3 -7
-12 -15 -20 -16 -17 -18 -14 -9 10 6 15 24 23 24 10z m1216 -22 c-9 -9 -37 8
-31 18 5 8 11 7 21 -1 8 -6 12 -14 10 -17z m5778 9 c4 -5 -3 -7 -14 -4 -23 6
-26 13 -6 13 8 0 17 -4 20 -9z m-6244 -21 c0 -5 -4 -10 -10 -10 -5 0 -10 5
-10 10 0 6 5 10 10 10 6 0 10 -4 10 -10z m980 0 c0 -5 -4 -10 -10 -10 -5 0
-10 5 -10 10 0 6 5 10 10 10 6 0 10 -4 10 -10z m6185 -10 c3 -5 1 -10 -4 -10
-6 0 -11 5 -11 10 0 6 2 10 4 10 3 0 8 -4 11 -10z m-5545 -11 c-45 -18 -60
-38 -48 -65 6 -13 15 -24 20 -24 4 0 8 -9 8 -19 0 -18 25 -53 77 -108 24 -25
48 -64 46 -74 -1 -3 31 0 72 7 185 32 311 34 2298 34 l1997 0 0 -720 0 -720
-1975 0 c-1940 0 -2063 -2 -2080 -31 -8 -12 -14 -44 -19 -99 -3 -25 -7 -52
-10 -60 -3 -8 -7 -26 -10 -40 -4 -27 -24 -105 -34 -130 -3 -8 -5 -18 -4 -22 2
-7 -36 -194 -42 -213 -2 -5 -4 -13 -5 -17 -1 -4 -7 -22 -12 -40 -6 -18 -16
-67 -23 -108 -8 -41 -17 -83 -21 -92 -5 -13 7 -26 56 -58 124 -80 25 -74 1329
-81 1232 -6 1189 -5 1390 -52 289 -69 586 -228 809 -434 59 -54 64 -62 63 -97
-3 -82 -94 -190 -215 -255 l-44 -24 -116 31 -115 32 -131 -50 -132 -50 -133
35 -134 35 -128 -15 -129 -15 -152 31 -152 30 -155 -46 -154 -45 -128 30 -127
31 -108 -36 -107 -36 -157 21 -156 21 -144 -21 -144 -21 -105 60 -104 60 -148
-49 -147 -50 -143 45 -143 46 -120 -31 -120 -30 -173 26 c-110 16 -192 23
-226 20 -46 -6 -66 -1 -157 34 -135 53 -279 127 -359 184 -51 36 -73 61 -109
123 -162 276 -247 604 -247 953 0 505 173 950 513 1316 66 71 66 71 46 90 -11
10 -43 50 -72 89 -72 98 -81 105 -120 94 -18 -5 -34 -9 -37 -9 -13 0 176 181
261 249 207 168 423 278 673 342 112 28 162 36 116 18z m-440 -13 c0 -3 -4 -8
-10 -11 -5 -3 -10 -1 -10 4 0 6 5 11 10 11 6 0 10 -2 10 -4z m6380 -6 c0 -5
-4 -10 -10 -10 -5 0 -10 5 -10 10 0 6 5 10 10 10 6 0 10 -4 10 -10z m-6900
-60 c0 -5 -2 -10 -4 -10 -3 0 -8 5 -11 10 -3 6 -1 10 4 10 6 0 11 -4 11 -10z
m-1010 -70 c0 -5 -7 -10 -15 -10 -8 0 -15 5 -15 10 0 6 7 10 15 10 8 0 15 -4
15 -10z m-1115 -40 c0 -22 -29 -18 -33 3 -3 14 1 18 15 15 10 -2 18 -10 18
-18z m1985 0 c0 -5 -4 -10 -10 -10 -5 0 -10 5 -10 10 0 6 5 10 10 10 6 0 10
-4 10 -10z m-900 -30 c0 -5 -9 -10 -21 -10 -11 0 -17 5 -14 10 3 6 13 10 21
10 8 0 14 -4 14 -10z m7510 -41 c0 -5 -7 -9 -15 -9 -15 0 -20 12 -9 23 8 8 24
-1 24 -14z m-7832 -7 c2 -7 -6 -12 -17 -12 -21 0 -27 11 -14 24 9 9 26 2 31
-12z m172 -2 c0 -5 -2 -10 -4 -10 -3 0 -8 5 -11 10 -3 6 -1 10 4 10 6 0 11 -4
11 -10z m340 -25 c0 -8 -4 -15 -9 -15 -13 0 -22 16 -14 24 11 11 23 6 23 -9z
m78 -93 c2 -7 -2 -10 -12 -6 -9 3 -16 11 -16 16 0 13 23 5 28 -10z m-808 -32
c0 -5 -4 -10 -10 -10 -5 0 -10 5 -10 10 0 6 5 10 10 10 6 0 10 -4 10 -10z
m7750 -20 c0 -5 -2 -10 -4 -10 -3 0 -8 5 -11 10 -3 6 -1 10 4 10 6 0 11 -4 11
-10z m-7027 -25 c1 -5 -6 -11 -15 -13 -11 -2 -18 3 -18 13 0 17 30 18 33 0z
m97 -55 c0 -5 -4 -10 -10 -10 -5 0 -10 5 -10 10 0 6 5 10 10 10 6 0 10 -4 10
-10z m-390 -30 c0 -5 -5 -10 -11 -10 -5 0 -7 5 -4 10 3 6 8 10 11 10 2 0 4 -4
4 -10z m7240 -10 c0 -5 -4 -10 -10 -10 -5 0 -10 5 -10 10 0 6 5 10 10 10 6 0
10 -4 10 -10z m260 0 c0 -5 -5 -10 -11 -10 -5 0 -7 5 -4 10 3 6 8 10 11 10 2
0 4 -4 4 -10z m-6450 -49 c0 -11 -29 -35 -35 -29 -10 9 7 38 21 38 8 0 14 -4
14 -9z m-60 -41 c0 -21 -24 -28 -35 -10 -8 14 3 30 21 30 8 0 14 -9 14 -20z
m6600 10 c0 -5 -5 -10 -11 -10 -5 0 -7 5 -4 10 3 6 8 10 11 10 2 0 4 -4 4 -10z
m-7270 -44 c0 -3 -4 -8 -10 -11 -5 -3 -10 -1 -10 4 0 6 5 11 10 11 6 0 10 -2
10 -4z m-920 -16 c0 -5 -4 -10 -10 -10 -5 0 -10 5 -10 10 0 6 5 10 10 10 6 0
10 -4 10 -10z m596 -17 c-10 -10 -19 5 -10 18 6 11 8 11 12 0 2 -7 1 -15 -2
-18z m7784 17 c0 -5 -4 -10 -10 -10 -5 0 -10 5 -10 10 0 6 5 10 10 10 6 0 10
-4 10 -10z m-7105 -10 c3 -5 1 -10 -4 -10 -6 0 -11 5 -11 10 0 6 2 10 4 10 3
0 8 -4 11 -10z m7010 0 c-3 -5 -12 -10 -18 -10 -7 0 -6 4 3 10 19 12 23 12 15
0z m-6885 -100 c0 -5 -4 -10 -10 -10 -5 0 -10 5 -10 10 0 6 5 10 10 10 6 0 10
-4 10 -10z m-440 -40 c0 -5 -5 -10 -11 -10 -5 0 -7 5 -4 10 3 6 8 10 11 10 2
0 4 -4 4 -10z m-30 -50 c0 -5 -4 -10 -10 -10 -5 0 -10 5 -10 10 0 6 5 10 10
10 6 0 10 -4 10 -10z m7025 -40 c3 -5 1 -10 -4 -10 -6 0 -11 5 -11 10 0 6 2
10 4 10 3 0 8 -4 11 -10z m495 -30 c0 -5 -4 -10 -10 -10 -5 0 -10 5 -10 10 0
6 5 10 10 10 6 0 10 -4 10 -10z m-8345 -90 c3 -5 1 -10 -4 -10 -6 0 -11 5 -11
10 0 6 2 10 4 10 3 0 8 -4 11 -10z m7537 -20 c-10 -12 -18 -16 -21 -9 -2 6 3
15 10 20 24 15 29 10 11 -11z m-77 -30 c-3 -5 -10 -10 -16 -10 -5 0 -9 5 -9
10 0 6 7 10 16 10 8 0 12 -4 9 -10z m-6705 -4 c0 -3 -4 -8 -10 -11 -5 -3 -10
-1 -10 4 0 6 5 11 10 11 6 0 10 -2 10 -4z m300 -32 c0 -8 -4 -12 -10 -9 -5 3
-10 10 -10 16 0 5 5 9 10 9 6 0 10 -7 10 -16z m7260 12 c0 -3 -4 -8 -10 -11
-5 -3 -10 -1 -10 4 0 6 5 11 10 11 6 0 10 -2 10 -4z m-7756 -27 c-3 -5 -10 -7
-15 -3 -5 3 -7 10 -3 15 3 5 10 7 15 3 5 -3 7 -10 3 -15z m7676 17 c0 -3 -4
-8 -10 -11 -5 -3 -10 -1 -10 4 0 6 5 11 10 11 6 0 10 -2 10 -4z m-640 -21 c0
-8 -4 -15 -9 -15 -13 0 -22 16 -14 24 11 11 23 6 23 -9z m-7100 -9 c0 -3 -4
-8 -10 -11 -5 -3 -10 -1 -10 4 0 6 5 11 10 11 6 0 10 -2 10 -4z m-55 -66 c3
-5 1 -10 -4 -10 -6 0 -11 5 -11 10 0 6 2 10 4 10 3 0 8 -4 11 -10z m-205 -4
c0 -3 -4 -8 -10 -11 -5 -3 -10 -1 -10 4 0 6 5 11 10 11 6 0 10 -2 10 -4z m220
-47 c0 -5 -7 -9 -15 -9 -15 0 -20 12 -9 23 8 8 24 -1 24 -14z m7066 0 c3 -6 0
-18 -9 -26 -18 -18 -37 -9 -37 18 0 21 34 27 46 8z m724 -4 c0 -9 -7 -18 -16
-22 -18 -7 -39 11 -30 26 11 17 46 13 46 -4z m-210 -41 c0 -10 -6 -14 -15 -10
-8 3 -15 0 -15 -6 0 -6 -3 -8 -6 -5 -8 8 14 37 27 37 5 0 9 -7 9 -16z m-7190
-4 c0 -5 -2 -10 -4 -10 -3 0 -8 5 -11 10 -3 6 -1 10 4 10 6 0 11 -4 11 -10z
m140 -20 c0 -5 -4 -10 -10 -10 -5 0 -10 5 -10 10 0 6 5 10 10 10 6 0 10 -4 10
-10z m6870 0 c0 -5 -4 -10 -10 -10 -5 0 -10 5 -10 10 0 6 5 10 10 10 6 0 10
-4 10 -10z m-7535 -20 c3 -5 1 -10 -4 -10 -6 0 -11 5 -11 10 0 6 2 10 4 10 3
0 8 -4 11 -10z m345 -30 c0 -5 -4 -10 -10 -10 -5 0 -10 5 -10 10 0 6 5 10 10
10 6 0 10 -4 10 -10z m290 -30 c0 -5 -4 -10 -10 -10 -5 0 -10 5 -10 10 0 6 5
10 10 10 6 0 10 -4 10 -10z m6750 -40 c0 -5 -4 -10 -10 -10 -5 0 -10 5 -10 10
0 6 5 10 10 10 6 0 10 -4 10 -10z m-6740 -111 c0 -5 -7 -9 -15 -9 -15 0 -20
12 -9 23 8 8 24 -1 24 -14z m7030 -59 c0 -5 -5 -10 -11 -10 -5 0 -7 5 -4 10 3
6 8 10 11 10 2 0 4 -4 4 -10z m-7120 -14 c0 -8 -7 -16 -15 -20 -15 -5 -21 14
-8 27 11 12 23 8 23 -7z m-420 -16 c0 -5 -4 -10 -10 -10 -5 0 -10 5 -10 10 0
6 5 10 10 10 6 0 10 -4 10 -10z m6930 -200 c0 -5 -4 -10 -10 -10 -5 0 -10 5
-10 10 0 6 5 10 10 10 6 0 10 -4 10 -10z m-6855 -50 c3 -5 -1 -10 -9 -10 -9 0
-16 5 -16 10 0 6 4 10 9 10 6 0 13 -4 16 -10z m5202 -56 c-3 -3 -12 -4 -19 -1
-8 3 -5 6 6 6 11 1 17 -2 13 -5z m66 -1 c-7 -2 -19 -2 -25 0 -7 3 -2 5 12 5
14 0 19 -2 13 -5z m965 0 c-175 -2 -461 -2 -635 0 -175 1 -32 2 317 2 349 0
492 -1 318 -2z m-2506 -15 c-9 -9 -15 -9 -24 0 -9 9 -7 12 12 12 19 0 21 -3
12 -12z m457 -12 c3 -18 -22 -46 -41 -46 -13 0 -28 38 -22 55 9 23 58 16 63
-9z m-4209 -2 c0 -9 -5 -14 -12 -12 -18 6 -21 28 -4 28 9 0 16 -7 16 -16z
m5910 6 c0 -5 -5 -10 -11 -10 -5 0 -7 5 -4 10 3 6 8 10 11 10 2 0 4 -4 4 -10z
m-2953 -35 c2 -6 -6 -11 -17 -12 -12 -1 -20 4 -20 13 0 17 31 16 37 -1z m1073
5 c0 -5 -4 -10 -10 -10 -5 0 -10 5 -10 10 0 6 5 10 10 10 6 0 10 -4 10 -10z
m720 0 c0 -5 -5 -10 -11 -10 -5 0 -7 5 -4 10 3 6 8 10 11 10 2 0 4 -4 4 -10z
m2110 -15 c0 -8 -7 -15 -15 -15 -8 0 -15 7 -15 15 0 8 7 15 15 15 8 0 15 -7
15 -15z m-1490 -19 c0 -8 -4 -18 -10 -21 -5 -3 -10 3 -10 14 0 12 5 21 10 21
6 0 10 -6 10 -14z m160 -2 c0 -8 -5 -12 -10 -9 -6 4 -8 11 -5 16 9 14 15 11
15 -7z m330 6 c0 -5 -4 -10 -10 -10 -5 0 -10 5 -10 10 0 6 5 10 10 10 6 0 10
-4 10 -10z m-1940 -10 c0 -5 -2 -10 -4 -10 -3 0 -8 5 -11 10 -3 6 -1 10 4 10
6 0 11 -4 11 -10z m2010 -9 c0 -6 -4 -13 -10 -16 -5 -3 -10 1 -10 9 0 9 5 16
10 16 6 0 10 -4 10 -9z m660 -1 c0 -5 -2 -10 -4 -10 -3 0 -8 5 -11 10 -3 6 -1
10 4 10 6 0 11 -4 11 -10z m350 -10 c0 -5 -4 -10 -10 -10 -5 0 -10 5 -10 10 0
6 5 10 10 10 6 0 10 -4 10 -10z m-1190 -40 c0 -5 -4 -10 -10 -10 -5 0 -10 5
-10 10 0 6 5 10 10 10 6 0 10 -4 10 -10z m310 -15 c0 -8 -7 -15 -15 -15 -8 0
-15 7 -15 15 0 8 7 15 15 15 8 0 15 -7 15 -15z m-1490 -11 c0 -8 -4 -12 -10
-9 -5 3 -10 10 -10 16 0 5 5 9 10 9 6 0 10 -7 10 -16z m415 -34 c3 -5 -1 -10
-10 -10 -9 0 -13 5 -10 10 3 6 8 10 10 10 2 0 7 -4 10 -10z m-1545 -30 c0 -5
-2 -10 -4 -10 -3 0 -8 5 -11 10 -3 6 -1 10 4 10 6 0 11 -4 11 -10z m2130 0 c0
-5 -4 -10 -10 -10 -5 0 -10 5 -10 10 0 6 5 10 10 10 6 0 10 -4 10 -10z m-3024
-15 c-21 -16 -32 -13 -21 4 3 6 14 11 23 11 15 -1 15 -2 -2 -15z m130 -22
c-10 -10 -19 5 -10 18 6 11 8 11 12 0 2 -7 1 -15 -2 -18z m1804 17 c0 -5 -4
-10 -10 -10 -5 0 -10 5 -10 10 0 6 5 10 10 10 6 0 10 -4 10 -10z m2170 -10 c0
-5 -2 -10 -4 -10 -3 0 -8 5 -11 10 -3 6 -1 10 4 10 6 0 11 -4 11 -10z m-3820
-10 c0 -5 -4 -10 -10 -10 -5 0 -10 5 -10 10 0 6 5 10 10 10 6 0 10 -4 10 -10z
m2420 -10 c0 -5 -4 -10 -10 -10 -5 0 -10 5 -10 10 0 6 5 10 10 10 6 0 10 -4
10 -10z m-1835 -20 c-3 -5 -10 -10 -16 -10 -5 0 -9 5 -9 10 0 6 7 10 16 10 8
0 12 -4 9 -10z m2357 -25 c0 -5 -5 -11 -11 -13 -6 -2 -11 4 -11 13 0 9 5 15
11 13 6 -2 11 -8 11 -13z m-42 -15 c0 -5 -4 -10 -10 -10 -5 0 -10 5 -10 10 0
6 5 10 10 10 6 0 10 -4 10 -10z m-5460 -98 c0 -14 -11 -21 -26 -15 -8 3 -11 9
-8 14 7 11 34 12 34 1z m5540 -76 c0 -3 -4 -8 -10 -11 -5 -3 -10 -1 -10 4 0 6
5 11 10 11 6 0 10 -2 10 -4z m120 -136 c0 -5 -2 -10 -4 -10 -3 0 -8 5 -11 10
-3 6 -1 10 4 10 6 0 11 -4 11 -10z m200 -170 c0 -5 -5 -10 -11 -10 -5 0 -7 5
-4 10 3 6 8 10 11 10 2 0 4 -4 4 -10z m140 -60 c0 -5 -4 -10 -10 -10 -5 0 -10
5 -10 10 0 6 5 10 10 10 6 0 10 -4 10 -10z m400 -114 c0 -3 -4 -8 -10 -11 -5
-3 -10 -1 -10 4 0 6 5 11 10 11 6 0 10 -2 10 -4z m-243 -12 c-3 -3 -12 -4 -19
-1 -8 3 -5 6 6 6 11 1 17 -2 13 -5z m223 -169 c0 -8 -4 -15 -10 -15 -5 0 -10
7 -10 15 0 8 5 15 10 15 6 0 10 -7 10 -15z m-5480 -789 c0 -2 -7 -6 -15 -10
-8 -3 -15 -1 -15 4 0 6 7 10 15 10 8 0 15 -2 15 -4z m-5 -36 c3 -5 1 -10 -4
-10 -6 0 -11 5 -11 10 0 6 2 10 4 10 3 0 8 -4 11 -10z m170 -30 c3 -5 2 -10
-4 -10 -5 0 -13 5 -16 10 -3 6 -2 10 4 10 5 0 13 -4 16 -10z m137 -97 c16 -10
43 -43 60 -73 17 -30 39 -64 49 -75 10 -11 18 -24 18 -30 0 -5 20 -43 43 -83
24 -40 50 -85 58 -100 17 -32 125 -217 157 -270 28 -46 28 -52 3 -52 -13 0
-30 19 -55 63 -20 34 -40 69 -45 77 -5 8 -75 130 -156 270 -81 140 -154 263
-162 273 -8 9 -12 17 -8 17 5 0 21 -8 38 -17z m3384 -48 c84 -41 167 -118 212
-197 50 -87 62 -150 60 -327 0 -130 -5 -172 -25 -251 -13 -52 -30 -102 -38
-110 -7 -8 -15 -19 -16 -25 -2 -10 -32 -46 -57 -68 -7 -7 -22 -20 -32 -29 -31
-28 -131 -76 -185 -89 -27 -6 -56 -17 -64 -23 -12 -9 -13 -8 -6 4 7 12 6 13
-6 4 -8 -7 -39 -15 -69 -19 -93 -12 -1362 -17 -1355 -5 3 5 -3 10 -14 10 -11
0 -23 -5 -27 -11 -4 -8 -9 -8 -17 0 -13 13 -31 15 -23 3 3 -5 -1 -9 -9 -9 -8
0 -12 4 -9 8 3 5 -12 8 -33 7 -136 -2 -414 5 -393 11 15 5 -27 10 -110 14
-147 7 -225 13 -310 24 -30 3 -62 6 -70 5 -10 -1 -11 0 -2 4 22 10 13 25 -12
18 -13 -3 -27 -1 -30 5 -4 5 -27 13 -52 17 -25 3 -41 10 -35 13 6 4 -3 12 -19
18 -17 6 -28 7 -25 2 4 -5 -1 -6 -9 -3 -9 3 -16 9 -17 13 0 3 -2 14 -4 24 -2
9 -3 18 -2 19 1 2 610 5 1354 8 743 3 1353 7 1356 10 8 10 -18 284 -29 301 -3
5 -29 6 -57 3 l-52 -5 62 30 c64 31 92 62 114 129 10 29 7 40 -18 90 -31 62
-73 93 -161 117 l-47 13 63 1 63 1 -7 78 c-3 42 -10 108 -13 146 l-7 68 55 -6
c33 -4 86 -21 127 -41z m-3496 15 c0 -5 -7 -10 -16 -10 -8 0 -12 5 -9 10 3 6
10 10 16 10 5 0 9 -4 9 -10z m25 -70 c3 -5 1 -10 -4 -10 -6 0 -11 5 -11 10 0
6 2 10 4 10 3 0 8 -4 11 -10z m95 -151 c0 -5 -4 -9 -10 -9 -5 0 -10 7 -10 16
0 8 5 12 10 9 6 -3 10 -10 10 -16z m-46 -10 c-3 -5 -10 -7 -15 -3 -5 3 -7 10
-3 15 3 5 10 7 15 3 5 -3 7 -10 3 -15z m116 -23 c0 -3 -4 -8 -10 -11 -5 -3
-10 -1 -10 4 0 6 5 11 10 11 6 0 10 -2 10 -4z m870 -16 c0 -5 -4 -10 -10 -10
-5 0 -10 5 -10 10 0 6 5 10 10 10 6 0 10 -4 10 -10z m248 -32 c-4 -30 -48 -39
-48 -10 0 10 3 22 7 25 3 4 15 7 25 7 14 0 19 -6 16 -22z m380 -9 c-16 -10
-33 5 -23 21 5 8 11 8 21 -1 12 -10 12 -14 2 -20z m392 -9 c0 -5 -4 -10 -10
-10 -5 0 -10 5 -10 10 0 6 5 10 10 10 6 0 10 -4 10 -10z m145 -20 c3 -5 1 -10
-4 -10 -6 0 -11 5 -11 10 0 6 2 10 4 10 3 0 8 -4 11 -10z m762 -32 c-3 -8 -6
-5 -6 6 -1 11 2 17 5 13 3 -3 4 -12 1 -19z m-697 -3 c0 -8 -7 -15 -15 -15 -16
0 -20 12 -8 23 11 12 23 8 23 -8z m545 -54 c3 -5 1 -12 -5 -16 -5 -3 -10 1
-10 9 0 18 6 21 15 7z m162 -7 c-3 -3 -12 -4 -19 -1 -8 3 -5 6 6 6 11 1 17 -2
13 -5z m323 -4 c0 -5 -5 -10 -11 -10 -5 0 -7 5 -4 10 3 6 8 10 11 10 2 0 4 -4
4 -10z m-422 -23 c2 -10 -3 -17 -12 -17 -10 0 -16 9 -16 21 0 24 23 21 28 -4z
m317 13 c3 -5 1 -10 -4 -10 -6 0 -11 5 -11 10 0 6 2 10 4 10 3 0 8 -4 11 -10z
m45 -10 c0 -5 -5 -10 -11 -10 -5 0 -7 5 -4 10 3 6 8 10 11 10 2 0 4 -4 4 -10z
m-3030 -10 c0 -5 -4 -10 -10 -10 -5 0 -10 5 -10 10 0 6 5 10 10 10 6 0 10 -4
10 -10z m570 6 c0 -3 -4 -8 -10 -11 -5 -3 -10 -1 -10 4 0 6 5 11 10 11 6 0 10
-2 10 -4z m1750 -16 c0 -5 -5 -10 -11 -10 -5 0 -7 5 -4 10 3 6 8 10 11 10 2 0
4 -4 4 -10z m-1190 -50 c0 -5 -5 -10 -11 -10 -5 0 -7 5 -4 10 3 6 8 10 11 10
2 0 4 -4 4 -10z m1604 -5 c3 -8 1 -15 -4 -15 -6 0 -10 7 -10 15 0 8 2 15 4 15
2 0 6 -7 10 -15z m2233 -110 c-9 -126 -48 -317 -93 -446 -96 -279 -241 -506
-464 -729 -303 -303 -626 -471 -1053 -547 -83 -15 -299 -17 -2159 -20 l-2068
-4 0 721 0 720 308 0 c202 0 302 -4 292 -10 -8 -5 -23 -10 -32 -10 -10 0 -18
-5 -18 -11 0 -5 -4 -8 -9 -5 -5 4 -11 2 -13 -4 -1 -5 -16 -11 -33 -13 -40 -6
-86 -17 -110 -27 -33 -15 -98 -30 -106 -24 -4 2 -10 0 -14 -6 -4 -6 -11 -8
-16 -5 -5 4 -9 -1 -9 -9 0 -9 -5 -16 -11 -16 -12 0 -46 -40 -68 -80 -16 -29
-21 -89 -9 -96 5 -3 6 -10 2 -15 -3 -5 1 -21 10 -34 9 -14 12 -26 6 -30 -11
-7 -10 -74 2 -76 4 -1 13 -3 18 -4 6 -1 13 -3 18 -4 4 -1 -4 -11 -17 -21 -22
-19 -22 -20 -3 -20 11 0 23 -7 26 -16 3 -8 2 -12 -4 -9 -6 3 -10 1 -10 -4 0
-6 9 -11 21 -11 11 0 18 -4 14 -9 -3 -5 -1 -12 4 -15 5 -4 13 -1 17 5 5 8 3 9
-6 4 -8 -5 -11 -4 -7 3 8 12 47 4 47 -10 0 -5 -4 -6 -10 -3 -5 3 -7 0 -4 -8 3
-8 -2 -17 -10 -20 -9 -4 -16 -12 -16 -19 0 -10 2 -10 9 1 6 9 14 10 27 3 25
-13 100 0 96 17 -1 7 2 10 8 6 6 -3 7 -11 4 -17 -5 -8 -1 -9 11 -4 11 4 22 2
27 -6 5 -9 8 -7 8 7 0 17 2 17 10 5 8 -12 10 -12 11 5 l0 20 9 -20 c6 -15 9
-16 9 -4 1 9 8 16 16 17 8 1 22 3 30 4 8 1 15 7 15 13 0 7 15 11 35 11 35 -1
46 -10 23 -19 -7 -3 -3 -4 8 -4 15 1 20 6 16 16 -3 9 -1 12 6 7 7 -4 12 -4 12
1 0 4 37 8 83 7 63 0 88 3 108 17 32 22 85 37 75 20 -4 -6 -4 -11 1 -12 4 0
18 -2 30 -3 12 -1 21 2 20 8 -1 7 22 12 58 14 32 2 65 8 72 14 9 7 13 7 13 -1
0 -6 13 -10 30 -9 22 2 30 7 30 21 0 16 9 18 79 16 43 -1 85 2 92 7 11 6 12 5
2 -7 -9 -11 -7 -14 15 -15 15 -1 21 1 13 3 -11 5 -11 7 0 14 9 5 18 1 27 -14
11 -19 12 -20 8 -2 -5 19 -1 20 97 20 56 -1 114 2 129 6 14 4 29 4 33 1 15
-15 35 -9 36 11 1 16 3 17 6 5 3 -14 17 -16 83 -15 43 1 82 5 86 10 4 4 12 7
18 7 6 0 4 -5 -4 -10 -12 -8 -9 -10 13 -10 15 0 27 6 27 13 0 8 3 8 9 -2 8
-13 12 -13 27 0 11 9 15 9 10 2 -5 -9 1 -13 22 -13 29 0 58 21 46 33 -3 3 29
5 72 4 73 -2 79 -4 76 -22 -2 -16 -1 -17 7 -5 5 8 8 17 6 20 -2 4 66 7 151 9
116 1 160 -1 172 -11 13 -11 14 -11 8 1 -6 9 -5 12 5 9 8 -3 13 -11 11 -17 -1
-7 2 -10 8 -6 6 3 8 10 6 14 -3 4 58 9 136 10 134 1 140 1 127 -16 -13 -17
-13 -17 6 -1 17 14 48 16 203 17 139 1 182 -2 182 -12 0 -9 2 -9 8 0 9 15 72
14 91 -1 11 -8 13 -8 7 2 -4 7 -1 12 8 12 8 0 20 -9 26 -21 7 -11 14 -18 17
-15 3 3 0 12 -7 21 -11 13 -8 15 19 15 23 0 30 -4 25 -12 -6 -10 -5 -10 7 -1
21 17 479 16 479 0 0 -8 3 -8 8 -2 10 14 85 18 76 4 -5 -8 -1 -8 13 0 24 12
261 13 269 0 3 -5 11 -9 17 -9 7 0 6 4 -3 10 -10 7 19 10 93 9 62 -1 107 -6
107 -12 0 -6 5 -6 13 0 6 5 37 9 67 9 49 -1 55 -3 52 -21 -2 -16 -1 -17 7 -5
5 8 8 17 6 21 -3 3 44 7 105 7 97 0 108 -1 104 -16 -5 -15 -4 -15 6 1 9 13 25
17 75 17 50 0 66 -4 75 -17 11 -17 11 -17 6 0 -5 15 4 17 97 17 69 0 108 -4
116 -12 11 -10 13 -10 7 0 -5 8 1 12 17 12 30 0 79 24 70 34 -4 4 0 4 10 0 10
-3 17 -1 17 5 0 6 12 17 28 24 31 13 163 147 146 147 -4 0 2 10 13 23 11 12
31 42 44 67 13 25 27 47 32 48 4 2 7 12 7 22 0 10 4 22 10 25 5 3 21 29 35 58
15 28 30 54 35 57 4 3 34 57 65 120 87 176 100 200 104 200 2 0 1 -43 -2 -95z
m-2944 55 c-3 -11 -9 -20 -14 -20 -11 0 -11 3 -3 24 9 23 23 20 17 -4z m792
-30 c0 -22 -29 -18 -33 3 -3 14 1 18 15 15 10 -2 18 -10 18 -18z m106 -3 c-10
-9 -11 -8 -5 6 3 10 9 15 12 12 3 -3 0 -11 -7 -18z m-2277 -2 c-4 -8 -14 -15
-23 -15 -14 1 -13 3 3 15 25 19 27 19 20 0z m-544 -15 c0 -5 -4 -10 -10 -10
-5 0 -10 5 -10 10 0 6 5 10 10 10 6 0 10 -4 10 -10z m1165 0 c3 -5 1 -10 -4
-10 -6 0 -11 5 -11 10 0 6 2 10 4 10 3 0 8 -4 11 -10z m95 0 c0 -5 -4 -10 -10
-10 -5 0 -10 5 -10 10 0 6 5 10 10 10 6 0 10 -4 10 -10z m-376 -758 c3 -5 -1
-9 -9 -9 -8 0 -12 4 -9 9 3 4 7 8 9 8 2 0 6 -4 9 -8z m-894 -52 c0 -5 -5 -10
-11 -10 -5 0 -7 5 -4 10 3 6 8 10 11 10 2 0 4 -4 4 -10z m-660 -110 c0 -5 -5
-10 -11 -10 -5 0 -7 5 -4 10 3 6 8 10 11 10 2 0 4 -4 4 -10z m2084 -1196 c25
-42 42 -61 46 -54 4 7 13 9 19 6 6 -4 11 -2 11 3 0 19 16 12 28 -11 6 -13 13
-35 16 -50 4 -16 11 -28 16 -28 5 0 20 -11 34 -25 14 -14 21 -25 15 -25 -6 0
-8 -4 -5 -9 9 -14 45 -1 40 14 -4 10 1 12 15 8 26 -7 26 -12 4 -29 -14 -11
-15 -13 -2 -9 9 3 22 -1 29 -10 17 -21 5 -31 -17 -14 -10 7 -15 10 -11 5 4 -5
3 -17 -3 -27 -10 -20 4 -28 16 -9 3 6 15 10 26 10 16 0 19 6 16 35 -1 23 -6
34 -14 30 -7 -2 -13 1 -13 9 0 22 12 26 34 11 11 -8 31 -15 43 -15 13 0 23 -5
23 -10 0 -6 -5 -9 -12 -8 -7 2 -12 -9 -12 -29 0 -29 -4 -33 -43 -44 -24 -6
-43 -13 -43 -14 0 -22 16 -31 55 -30 33 2 45 -2 45 -13 0 -8 -6 -12 -14 -9
-10 4 -13 1 -10 -7 3 -8 -4 -15 -20 -18 -19 -4 -26 -1 -26 10 0 23 -10 8 -16
-22 -2 -14 0 -26 6 -26 6 0 6 -9 0 -25 -6 -17 -6 -25 1 -25 6 0 7 -5 4 -10 -8
-13 23 -63 35 -55 4 3 6 -5 3 -16 -5 -19 -3 -21 20 -17 28 5 36 -9 16 -29 -10
-10 10 -49 123 -242 15 -25 35 -61 44 -78 9 -18 19 -33 23 -33 7 0 131 214
131 226 0 3 7 12 15 21 8 8 13 18 10 23 -3 5 6 20 20 34 14 14 25 29 25 35 0
5 17 36 38 68 22 32 47 76 57 98 11 22 22 42 25 45 8 6 90 146 90 153 0 3 20
38 45 78 25 40 45 80 44 89 0 8 -4 4 -10 -9 -6 -16 -13 -21 -20 -14 -11 11 -2
43 12 43 5 0 9 3 9 8 0 10 -52 9 -68 -2 -7 -4 -16 -5 -19 -2 -8 8 27 35 45 36
6 0 12 10 12 22 0 16 -3 19 -11 11 -6 -6 -19 -8 -30 -6 -15 4 -12 9 18 24 49
25 293 29 293 4 0 -9 6 -12 16 -8 12 4 15 1 12 -13 -2 -10 -10 -19 -18 -19
-20 0 -32 -18 -18 -26 6 -4 7 -12 4 -18 -4 -6 -12 -9 -17 -6 -5 4 -9 -1 -9 -9
0 -9 -6 -16 -13 -16 -7 0 -31 -9 -52 -20 -22 -11 -41 -16 -43 -12 -1 5 -14 7
-28 4 -15 -3 -23 -10 -20 -17 2 -7 -5 -15 -16 -18 -13 -4 -19 -11 -15 -21 3
-8 -1 -17 -8 -20 -9 -3 -12 -12 -9 -21 4 -10 2 -15 -6 -13 -12 3 -36 -32 -95
-139 -15 -26 -45 -78 -67 -115 -23 -38 -37 -72 -32 -79 4 -8 3 -9 -4 -5 -7 4
-12 1 -12 -8 0 -8 -4 -16 -8 -18 -9 -3 -68 -98 -83 -132 -5 -12 -13 -28 -19
-36 -32 -50 -100 -173 -97 -177 3 -2 -8 -17 -24 -34 -20 -22 -36 -29 -54 -27
-22 2 -38 22 -92 118 -37 63 -69 117 -72 120 -3 3 -12 17 -20 32 -8 15 -18 25
-23 22 -4 -3 -8 4 -8 16 0 12 -4 18 -10 15 -9 -6 -14 6 -11 30 0 6 -10 24 -23
40 -23 28 -25 29 -32 11 -5 -12 -3 -21 4 -24 17 -5 15 -22 -4 -22 -8 0 -13 4
-10 9 3 5 -1 14 -9 21 -11 9 -15 9 -16 1 -3 -22 -4 -26 -22 -51 -9 -13 -17
-19 -17 -12 0 7 -4 10 -10 7 -5 -3 -10 -15 -10 -26 0 -10 -7 -19 -15 -19 -8 0
-15 5 -15 10 0 6 5 10 11 10 5 0 7 5 4 10 -4 6 -10 8 -15 5 -4 -3 -14 5 -23
18 -11 18 -12 25 -2 34 7 6 15 9 18 6 3 -3 3 5 0 16 -6 23 -23 39 -23 22 0 -6
-5 -11 -11 -11 -6 0 -8 8 -4 19 5 16 2 18 -15 14 -11 -3 -20 -14 -20 -24 0
-34 -14 -20 -72 75 -96 155 -139 241 -126 254 8 8 9 12 1 12 -14 0 -23 34 -13
50 4 7 19 14 33 15 32 4 47 13 47 28 0 7 -4 6 -10 -3 -5 -8 -12 -12 -15 -9 -8
9 6 40 15 34 4 -3 20 8 35 23 l28 27 -5 -26 c-2 -14 1 -31 9 -37 10 -10 13
-10 13 3 0 8 4 15 9 15 9 0 -30 80 -54 110 -25 32 -26 50 -2 50 18 0 32 -15
61 -66z m256 35 c0 -14 -17 -10 -23 5 -4 10 -1 13 9 9 7 -3 14 -9 14 -14z
m560 1 c0 -5 -4 -10 -10 -10 -5 0 -10 5 -10 10 0 6 5 10 10 10 6 0 10 -4 10
-10z m-745 -19 c-3 -6 -11 -11 -17 -11 -6 0 -6 6 2 15 14 17 26 13 15 -4z
m845 15 c0 -3 -4 -8 -10 -11 -5 -3 -10 -1 -10 4 0 6 5 11 10 11 6 0 10 -2 10
-4z m-995 -26 c3 -5 1 -10 -4 -10 -6 0 -11 5 -11 10 0 6 2 10 4 10 3 0 8 -4
11 -10z m193 -11 c-2 -6 -8 -10 -13 -10 -5 0 -11 4 -13 10 -2 6 4 11 13 11 9
0 15 -5 13 -11z m-53 -8 c3 -5 1 -12 -5 -16 -5 -3 -10 1 -10 9 0 18 6 21 15 7z
m-105 -11 c0 -5 -4 -10 -10 -10 -5 0 -10 5 -10 10 0 6 5 10 10 10 6 0 10 -4
10 -10z m535 1 c3 -5 1 -12 -5 -16 -5 -3 -10 1 -10 9 0 18 6 21 15 7z m-569
-38 c-10 -10 -19 5 -10 18 6 11 8 11 12 0 2 -7 1 -15 -2 -18z m1394 17 c0 -5
-2 -10 -4 -10 -3 0 -8 5 -11 10 -3 6 -1 10 4 10 6 0 11 -4 11 -10z m-1157 -41
c-7 -24 -23 -25 -23 -1 0 10 -6 24 -12 31 -11 10 -8 10 13 1 19 -9 25 -18 22
-31z m132 31 c3 -5 1 -10 -4 -10 -6 0 -11 5 -11 10 0 6 2 10 4 10 3 0 8 -4 11
-10z m96 -33 c-13 -13 -26 -3 -16 12 3 6 11 8 17 5 6 -4 6 -10 -1 -17z m579
13 c0 -5 -4 -10 -10 -10 -5 0 -10 5 -10 10 0 6 5 10 10 10 6 0 10 -4 10 -10z
m-135 -10 c3 -5 1 -10 -4 -10 -6 0 -11 5 -11 10 0 6 2 10 4 10 3 0 8 -4 11
-10z m385 -4 c0 -11 -19 -15 -25 -6 -3 5 1 10 9 10 9 0 16 -2 16 -4z m-950
-26 c0 -5 -2 -10 -4 -10 -3 0 -8 5 -11 10 -3 6 -1 10 4 10 6 0 11 -4 11 -10z
m50 4 c0 -3 -7 -12 -15 -21 -20 -19 -32 -10 -14 11 14 15 29 21 29 10z m610
-25 c0 -11 -4 -18 -10 -14 -5 3 -7 12 -3 20 7 21 13 19 13 -6z m-673 -21 c-3
-8 -6 -5 -6 6 -1 11 2 17 5 13 3 -3 4 -12 1 -19z m480 16 c-3 -3 -12 -4 -19
-1 -8 3 -5 6 6 6 11 1 17 -2 13 -5z m-377 -24 c0 -5 -7 -7 -15 -4 -8 4 -12 10
-9 15 6 11 24 2 24 -11z m484 -4 c-3 -9 -10 -13 -16 -10 -5 3 -4 12 3 20 15
18 22 13 13 -10z m326 14 c0 -5 -4 -10 -10 -10 -5 0 -10 5 -10 10 0 6 5 10 10
10 6 0 10 -4 10 -10z m-490 -10 c0 -5 -4 -10 -10 -10 -5 0 -10 5 -10 10 0 6 5
10 10 10 6 0 10 -4 10 -10z m-36 -15 c-4 -8 -11 -15 -16 -15 -6 0 -5 6 2 15 7
8 14 15 16 15 2 0 1 -7 -2 -15z m616 -15 c9 -16 8 -18 -5 -14 -8 4 -15 12 -15
20 0 20 7 17 20 -6z m-824 -6 c-18 -17 -26 -18 -26 -1 0 7 9 13 20 14 18 2 18
0 6 -13z m724 -26 c0 -6 -6 -5 -15 2 -8 7 -15 14 -15 16 0 2 7 1 15 -2 8 -4
15 -11 15 -16z m-497 -9 c-4 -15 -9 -17 -17 -9 -8 8 -7 13 4 20 8 5 16 10 17
10 0 0 -1 -9 -4 -21z m-123 1 c0 -5 -2 -10 -4 -10 -3 0 -8 5 -11 10 -3 6 -1
10 4 10 6 0 11 -4 11 -10z m-65 -19 c3 -5 1 -12 -5 -16 -5 -3 -10 1 -10 9 0
18 6 21 15 7z m667 0 c-8 -4 -13 -12 -12 -17 1 -5 -3 -10 -9 -12 -15 -5 -14
25 2 31 20 9 33 7 19 -2z m-452 -31 c0 -16 -7 -20 -30 -20 -29 0 -29 1 -13 20
10 11 23 20 30 20 7 0 13 -9 13 -20z m384 14 c9 -3 16 -13 16 -21 0 -10 -6
-13 -16 -9 -9 3 -20 6 -25 6 -4 0 -6 7 -3 15 7 17 7 17 28 9z m46 -34 c0 -5
-4 -10 -10 -10 -5 0 -13 -12 -16 -27 -6 -23 -8 -24 -19 -10 -7 10 -18 17 -26
17 -12 0 -12 2 0 9 8 5 20 7 28 4 7 -3 16 2 19 11 7 18 24 22 24 6z m-576 -53
c-9 -5 -20 -2 -30 7 -14 15 -13 17 8 25 17 6 24 5 29 -8 4 -9 0 -20 -7 -24z
m216 23 c0 -5 -4 -10 -10 -10 -5 0 -10 5 -10 10 0 6 5 10 10 10 6 0 10 -4 10
-10z m220 0 c0 -5 -4 -10 -10 -10 -5 0 -10 5 -10 10 0 6 5 10 10 10 6 0 10 -4
10 -10z m-120 -36 c0 -16 -16 -19 -25 -4 -8 13 4 32 16 25 5 -4 9 -13 9 -21z
m-212 -14 c7 -11 10 -20 6 -20 -7 0 -34 27 -34 34 0 13 16 5 28 -14z m-238 0
c0 -5 -5 -10 -11 -10 -5 0 -7 5 -4 10 3 6 8 10 11 10 2 0 4 -4 4 -10z m750 0
c0 -5 -4 -10 -10 -10 -5 0 -10 5 -10 10 0 6 5 10 10 10 6 0 10 -4 10 -10z
m-616 -25 c-6 -16 -24 -21 -24 -7 0 11 11 22 21 22 5 0 6 -7 3 -15z m-184 1
c0 -3 -4 -8 -10 -11 -5 -3 -10 -1 -10 4 0 6 5 11 10 11 6 0 10 -2 10 -4z m624
-25 c3 -5 -1 -14 -8 -20 -16 -13 -32 2 -21 19 8 12 22 13 29 1z m-441 -25 c4
-10 1 -13 -9 -9 -7 3 -14 9 -14 14 0 14 17 10 23 -5z m-208 -17 c-4 -5 -16 -9
-28 -9 -20 0 -20 0 -2 14 21 15 40 12 30 -5z m665 0 c0 -5 -4 -9 -10 -9 -5 0
-10 7 -10 16 0 8 5 12 10 9 6 -3 10 -10 10 -16z m-350 -25 c0 -8 -5 -12 -10
-9 -6 4 -8 11 -5 16 9 14 15 11 15 -7z m450 1 c0 -8 -4 -15 -9 -15 -13 0 -22
16 -14 24 11 11 23 6 23 -9z m-72 -17 c7 -1 10 -8 7 -15 -3 -8 -5 -19 -5 -24
0 -20 -20 -8 -26 15 -3 14 -11 27 -17 29 -7 2 -3 2 8 0 11 -3 26 -5 33 -5z
m-533 -29 c4 -11 4 -23 0 -27 -7 -7 -25 17 -25 36 0 20 18 14 25 -9z m-85 -9
c0 -5 -4 -10 -10 -10 -5 0 -10 5 -10 10 0 6 5 10 10 10 6 0 10 -4 10 -10z m11
-45 c-9 -19 -20 -34 -25 -35 -5 0 -6 3 -3 6 3 4 2 15 -4 25 -8 15 -6 17 6 12
11 -4 18 1 22 16 3 11 9 19 13 16 4 -3 0 -20 -9 -40z m-347 26 c3 -5 -1 -11
-9 -14 -9 -4 -12 -1 -8 9 6 16 10 17 17 5z m866 -1 c0 -5 -5 -10 -11 -10 -5 0
-7 5 -4 10 3 6 8 10 11 10 2 0 4 -4 4 -10z m-70 -9 c0 -5 3 -18 7 -28 6 -16 5
-16 -10 -4 -19 15 -23 41 -7 41 6 0 10 -4 10 -9z m-400 -21 c0 -5 -4 -10 -10
-10 -5 0 -10 5 -10 10 0 6 5 10 10 10 6 0 10 -4 10 -10z m155 -28 c-3 -3 -11
0 -18 7 -9 10 -8 11 6 5 10 -3 15 -9 12 -12z m225 8 c0 -5 -4 -10 -10 -10 -5
0 -10 5 -10 10 0 6 5 10 10 10 6 0 10 -4 10 -10z m-590 -34 c0 -8 -4 -17 -9
-20 -10 -7 -23 19 -14 28 11 11 23 6 23 -8z m549 -15 c-15 -5 -22 6 -14 19 6
9 10 9 16 -1 5 -8 4 -15 -2 -18z m-509 9 c0 -5 -5 -10 -11 -10 -5 0 -7 5 -4
10 3 6 8 10 11 10 2 0 4 -4 4 -10z m-80 -29 c0 -4 -7 -8 -15 -8 -16 0 -20 9
-9 20 8 8 24 -1 24 -12z m90 -7 c0 -8 -4 -12 -10 -9 -5 3 -10 10 -10 16 0 5 5
9 10 9 6 0 10 -7 10 -16z m-140 2 c0 -3 -4 -8 -10 -11 -5 -3 -10 -1 -10 4 0 6
5 11 10 11 6 0 10 -2 10 -4z m110 -6 c0 -5 -4 -10 -10 -10 -5 0 -10 5 -10 10
0 6 5 10 10 10 6 0 10 -4 10 -10z m540 0 c0 -5 -2 -10 -4 -10 -3 0 -8 5 -11
10 -3 6 -1 10 4 10 6 0 11 -4 11 -10z m60 0 c0 -5 -4 -10 -10 -10 -5 0 -10 5
-10 10 0 6 5 10 10 10 6 0 10 -4 10 -10z m35 -10 c3 -5 1 -10 -4 -10 -6 0 -11
5 -11 10 0 6 2 10 4 10 3 0 8 -4 11 -10z m-671 -36 c8 -20 8 -24 -1 -24 -17 0
-35 19 -29 29 10 16 23 14 30 -5z m346 12 c0 -3 -4 -8 -10 -11 -5 -3 -10 -1
-10 4 0 6 5 11 10 11 6 0 10 -2 10 -4z m240 -6 c0 -5 -4 -10 -10 -10 -5 0 -10
5 -10 10 0 6 5 10 10 10 6 0 10 -4 10 -10z m84 -6 c9 -22 8 -24 -9 -24 -8 0
-15 9 -15 20 0 24 15 27 24 4z m-714 -24 c0 -5 -4 -10 -10 -10 -5 0 -10 5 -10
10 0 6 5 10 10 10 6 0 10 -4 10 -10z m664 1 c3 -5 -1 -11 -9 -14 -9 -4 -12 -1
-8 9 6 16 10 17 17 5z m-127 -35 c-6 -17 -31 -13 -35 6 -2 12 2 15 18 11 11
-3 19 -11 17 -17z m-517 -21 c0 -8 -2 -15 -4 -15 -2 0 -6 7 -10 15 -3 8 -1 15
4 15 6 0 10 -7 10 -15z m580 5 c0 -5 -5 -10 -11 -10 -5 0 -7 5 -4 10 3 6 8 10
11 10 2 0 4 -4 4 -10z m-390 -20 c0 -5 -5 -10 -11 -10 -5 0 -7 5 -4 10 3 6 8
10 11 10 2 0 4 -4 4 -10z m290 -4 c0 -8 -7 -16 -15 -20 -17 -6 -18 -4 -9 18 8
20 24 21 24 2z m168 -7 c-2 -6 -8 -10 -13 -10 -5 0 -11 4 -13 10 -2 6 4 11 13
11 9 0 15 -5 13 -11z m-51 -25 c2 -13 1 -15 -4 -4 -3 8 -11 19 -17 23 -7 6 -6
7 4 4 8 -2 16 -12 17 -23z m-49 -5 c-2 -6 -8 -10 -13 -10 -5 0 -11 4 -13 10
-2 6 4 11 13 11 9 0 15 -5 13 -11z m-438 -14 c-7 -9 -15 -13 -17 -11 -7 7 7
26 19 26 6 0 6 -6 -2 -15z m38 -36 c-2 -6 -8 -10 -13 -10 -5 0 -11 4 -13 10
-2 6 4 11 13 11 9 0 15 -5 13 -11z m483 -2 c-1 -12 -15 -9 -19 4 -3 6 1 10 8
8 6 -3 11 -8 11 -12z m-21 -38 c0 -14 -17 -10 -23 5 -4 10 -1 13 9 9 7 -3 14
-9 14 -14z m-142 -7 c2 -7 -3 -12 -12 -12 -9 0 -16 7 -16 16 0 17 22 14 28 -4z
m-343 -2 c3 -5 1 -10 -4 -10 -6 0 -11 5 -11 10 0 6 2 10 4 10 3 0 8 -4 11 -10z
m435 0 c0 -5 -2 -10 -4 -10 -3 0 -8 5 -11 10 -3 6 -1 10 4 10 6 0 11 -4 11
-10z m-140 -31 c0 -5 -4 -9 -10 -9 -5 0 -10 7 -10 16 0 8 5 12 10 9 6 -3 10
-10 10 -16z m-300 -49 c0 -5 -4 -10 -10 -10 -5 0 -10 5 -10 10 0 6 5 10 10 10
6 0 10 -4 10 -10z m200 0 c0 -5 -2 -10 -4 -10 -3 0 -8 5 -11 10 -3 6 -1 10 4
10 6 0 11 -4 11 -10z m-160 -86 c0 -8 -4 -12 -10 -9 -5 3 -10 10 -10 16 0 5 5
9 10 9 6 0 10 -7 10 -16z m100 6 c0 -5 -4 -10 -10 -10 -5 0 -10 5 -10 10 0 6
5 10 10 10 6 0 10 -4 10 -10z m-40 -4 c0 -3 -4 -8 -10 -11 -5 -3 -10 -1 -10 4
0 6 5 11 10 11 6 0 10 -2 10 -4z m75 -35 c3 -5 1 -12 -5 -16 -5 -3 -10 1 -10
9 0 18 6 21 15 7z m175 -16 c0 -8 -4 -15 -10 -15 -5 0 -10 7 -10 15 0 8 5 15
10 15 6 0 10 -7 10 -15z m-200 -5 c0 -5 -4 -10 -10 -10 -5 0 -10 5 -10 10 0 6
5 10 10 10 6 0 10 -4 10 -10z m-8 -69 c-5 -3 -12 -15 -14 -26 -4 -18 -6 -18
-12 -3 -8 18 13 50 28 41 4 -3 4 -8 -2 -12z m118 -21 c0 -5 -4 -10 -10 -10 -5
0 -10 5 -10 10 0 6 5 10 10 10 6 0 10 -4 10 -10z"/>
<path d="M4882 3666 c7 -8 14 -10 16 -6 2 5 15 4 30 -1 18 -7 24 -7 17 0 -5 5
-25 13 -43 16 -28 5 -31 3 -20 -9z"/>
<path d="M5385 3671 c-3 -5 -2 -12 3 -15 5 -3 9 1 9 9 0 17 -3 19 -12 6z"/>
<path d="M5413 3663 c0 -9 4 -10 14 -2 7 6 13 12 13 14 0 1 -6 2 -13 2 -8 0
-14 -6 -14 -14z"/>
<path d="M6301 3664 c0 -11 3 -14 6 -6 3 7 2 16 -1 19 -3 4 -6 -2 -5 -13z"/>
<path d="M6616 3668 c3 -5 10 -6 15 -3 13 9 11 12 -6 12 -8 0 -12 -4 -9 -9z"/>
<path d="M6775 3670 c3 -5 8 -10 11 -10 2 0 4 5 4 10 0 6 -5 10 -11 10 -5 0
-7 -4 -4 -10z"/>
<path d="M5196 3661 c-4 -5 3 -7 14 -4 23 6 26 13 6 13 -8 0 -17 -4 -20 -9z"/>
<path d="M5530 3659 c0 -5 5 -7 10 -4 6 3 10 8 10 11 0 2 -4 4 -10 4 -5 0 -10
-5 -10 -11z"/>
<path d="M6017 3659 c7 -7 15 -10 18 -7 3 3 -2 9 -12 12 -14 6 -15 5 -6 -5z"/>
<path d="M6976 3661 c9 -9 34 -9 34 -1 0 5 -9 8 -20 7 -10 -1 -17 -3 -14 -6z"/>
<path d="M7116 3658 c3 -5 10 -6 15 -3 13 9 11 12 -6 12 -8 0 -12 -4 -9 -9z"/>
<path d="M7465 3660 c3 -5 11 -10 16 -10 6 0 7 5 4 10 -3 6 -11 10 -16 10 -6
0 -7 -4 -4 -10z"/>
<path d="M3626 3616 c6 -16 31 -17 31 -1 0 6 -8 12 -18 12 -11 1 -16 -3 -13
-11z"/>
<path d="M3691 3614 c0 -11 3 -14 6 -6 3 7 2 16 -1 19 -3 4 -6 -2 -5 -13z"/>
<path d="M3435 3580 c3 -5 8 -10 11 -10 2 0 4 5 4 10 0 6 -5 10 -11 10 -5 0
-7 -4 -4 -10z"/>
<path d="M3291 3577 c2 -1 11 -8 21 -15 12 -10 18 -10 24 -1 4 7 3 9 -4 5 -6
-3 -13 -2 -17 4 -3 5 -11 10 -17 10 -6 0 -9 -1 -7 -3z"/>
<path d="M5010 1849 c0 -5 5 -7 10 -4 6 3 10 8 10 11 0 2 -4 4 -10 4 -5 0 -10
-5 -10 -11z"/>
<path d="M5037 1823 c-4 -3 -7 -20 -6 -37 l1 -31 8 35 c9 36 8 45 -3 33z"/>
<path d="M4920 1698 c0 -4 9 -12 19 -17 15 -8 20 -7 25 5 3 9 6 16 6 17 0 1
-11 2 -25 2 -14 0 -25 -3 -25 -7z"/>
</g>
</svg>
